<?xml version="1.0" standalone="no"?>
<!DOCTYPE svg PUBLIC "-//W3C//DTD SVG 20010904//EN"
 "http://www.w3.org/TR/2001/REC-SVG-20010904/DTD/svg10.dtd">
<svg version="1.0" xmlns="http://www.w3.org/2000/svg"
 width="400.000000pt" height="400.000000pt" viewBox="0 0 400.000000 400.000000"
 preserveAspectRatio="xMidYMid meet">
<metadata>
Created by potrace 1.11, written by Peter Selinger 2001-2013
</metadata>
<g transform="translate(0.000000,400.000000) scale(0.100000,-0.100000)"
fill="#000000" stroke="none">
<path d="M1850 3598 c-152 -301 -180 -348 -209 -348 -12 0 -242 128 -320 179
-22 14 -23 14 -18 -4 4 -11 9 -38 13 -60 3 -22 12 -70 20 -107 7 -37 16 -82
19 -100 3 -18 12 -64 20 -103 17 -83 65 -339 71 -375 2 -14 9 -45 14 -70 41
-192 39 -222 -18 -233 -23 -5 -37 5 -102 71 -87 90 -298 316 -329 352 -11 14
-21 23 -21 20 0 -3 -22 -57 -49 -120 -72 -167 -56 -161 -292 -111 -107 23
-216 46 -244 52 -27 6 -58 13 -68 16 -23 6 -30 33 74 -290 44 -137 79 -261 77
-275 -3 -23 -18 -35 -116 -83 l-113 -57 128 -104 c70 -58 169 -138 218 -177
102 -83 133 -108 225 -183 36 -30 103 -85 150 -122 153 -124 172 -141 180
-161 7 -18 -44 -179 -94 -300 l-16 -38 47 6 c27 3 113 17 193 32 215 38 252
45 290 51 19 3 42 7 50 9 8 2 35 7 60 10 24 4 47 8 50 10 11 7 104 19 139 18
25 0 42 -8 59 -28 24 -28 24 -29 17 -194 -3 -91 -8 -188 -10 -216 -2 -27 -7
-106 -10 -175 -3 -69 -8 -162 -11 -207 l-4 -83 86 0 86 0 -7 122 c-3 68 -8
164 -11 213 -2 50 -6 128 -9 175 -18 320 -18 335 7 364 29 33 52 36 147 19 42
-8 90 -16 106 -18 17 -3 41 -7 55 -10 49 -10 256 -46 295 -51 22 -3 47 -7 55
-10 8 -3 33 -8 55 -11 22 -3 68 -11 103 -18 51 -10 62 -10 62 0 0 7 -23 76
-51 152 -28 76 -51 149 -51 162 -1 32 -69 -26 736 625 l168 136 -104 50 c-58
27 -111 56 -118 65 -18 22 -11 54 79 330 45 137 81 252 81 256 0 9 -20 6 -140
-21 -286 -63 -385 -80 -406 -69 -12 6 -34 43 -54 92 -18 45 -42 102 -53 126
l-19 44 -30 -34 c-16 -19 -60 -66 -96 -104 -37 -39 -114 -122 -172 -184 -58
-62 -113 -117 -122 -122 -23 -13 -67 6 -77 33 -4 13 -2 49 6 87 8 36 16 82 19
101 3 19 9 51 14 70 5 19 11 51 14 70 5 30 26 139 40 206 2 12 7 38 10 58 3
19 10 55 15 78 5 24 13 63 16 88 4 24 8 47 10 50 2 3 6 21 9 40 3 19 12 68 20
107 7 40 11 71 7 69 -3 -2 -73 -43 -156 -91 -156 -92 -197 -105 -219 -69 -6
11 -80 154 -164 319 -85 165 -155 301 -156 303 -2 1 -72 -134 -156 -300z"/>
</g>
</svg>
