<svg id="Layer_1" data-name="Layer 1" xmlns="http://www.w3.org/2000/svg" viewBox="0 0 457.74 99.1"><defs><style>.cls-1,.cls-2{fill:#232930;}.cls-2{fill-rule:evenodd;}.cls-3{fill:#ed2224;}</style></defs><title>logo</title><g id="Canvas"><g id="xrp-text-mark-black"><g id="Group"><path id="Vector" class="cls-1" d="M95.92,2.17h16.25L78.35,36.36a31.1,31.1,0,0,1-44.33,0L.21,2.17H16.46l25.69,26a19.7,19.7,0,0,0,28.08,0Z"/><path id="Vector_2" data-name="Vector 2" class="cls-1" d="M16.25,97.26H0L34,62.85a31.1,31.1,0,0,1,44.33,0l34,34.41H96.13L70.23,71.07a19.7,19.7,0,0,0-28.08,0Z"/></g><path id="Union" class="cls-2" d="M310.16,2.17h0a33.33,33.33,0,0,1,21.39,8.53,27.88,27.88,0,0,1,6.53,9.18A26.64,26.64,0,0,1,338,42.13a28.7,28.7,0,0,1-6.67,9.17,32.28,32.28,0,0,1-9.84,6.2h0a32,32,0,0,1-11.95,2.21H274V96.94H261.53V2.17Zm-.67,46a19.14,19.14,0,0,0,13.05-5.06,17.27,17.27,0,0,0,4-5.53A15.91,15.91,0,0,0,328,30.88a15.71,15.71,0,0,0-1.45-6.63,17.38,17.38,0,0,0-4-5.53A18.79,18.79,0,0,0,316.61,15a19,19,0,0,0-7.12-1.35H274V48.21Z"/><path id="Union_2" data-name="Union 2" class="cls-1" d="M170.86,59.9A21.31,21.31,0,0,1,187,67.09l25.77,29.85h16.05L193.51,55.56a21.27,21.27,0,0,0-16.18-7.29H152.9V13.8h35.48a19,19,0,0,1,7.12,1.35,18.63,18.63,0,0,1,5.93,3.72l0,0A16.19,16.19,0,0,1,206.88,31a15.91,15.91,0,0,1-1.45,6.74,17.41,17.41,0,0,1-2.13,3.41l8.12,9.07.3-.33a28,28,0,0,0,5.55-8.65A25.35,25.35,0,0,0,219.36,31,26.27,26.27,0,0,0,217,20a28,28,0,0,0-6.53-9.19,32.66,32.66,0,0,0-9.69-6.2,30.92,30.92,0,0,0-11.7-2.46H146.66A6.41,6.41,0,0,0,142.21,4a5.35,5.35,0,0,0-1.79,4v89H152.9v-37Z"/></g></g><path class="cls-3" d="M409.79,99.1l1.1-21.22a2.33,2.33,0,0,0-2.22-2.44,2.19,2.19,0,0,0-.51,0L387,79.18l2.85-7.87a1.59,1.59,0,0,0-.49-1.79L366.26,50.78l5.21-2.43a1.61,1.61,0,0,0,.84-2l-4.58-14.06,13.33,2.83a1.61,1.61,0,0,0,1.8-.94l2.58-6.07,10.4,11.16a1.6,1.6,0,0,0,2.26.06,1.56,1.56,0,0,0,.47-1.46l-5-25.87,8,4.65a1.6,1.6,0,0,0,2.18-.57.31.31,0,0,0,.05-.1L412,0l8.16,16a1.61,1.61,0,0,0,2.15.72l.09-.05,8-4.65-5,25.87a1.59,1.59,0,0,0,1.26,1.87,1.61,1.61,0,0,0,1.47-.47l10.4-11.16,2.58,6.07a1.6,1.6,0,0,0,1.79.94l13.33-2.83L451.69,46.4a1.61,1.61,0,0,0,.84,2l5.21,2.43L434.6,69.52a1.59,1.59,0,0,0-.49,1.79L437,79.18l-21.12-3.71a2.34,2.34,0,0,0-2.7,1.91,2.07,2.07,0,0,0,0,.5l1.1,21.22Z"/></svg>